<?xml version="1.0" encoding="utf-8"?>
<!-- Generator: Adobe Illustrator 25.2.0, SVG Export Plug-In . SVG Version: 6.00 Build 0)  -->
<svg version="1.1" id="Layer_1" xmlns="http://www.w3.org/2000/svg" xmlns:xlink="http://www.w3.org/1999/xlink" x="0px" y="0px"
	 viewBox="0 0 512 512" style="enable-background:new 0 0 512 512;" xml:space="preserve">
<style type="text/css">
	.st0{fill:#3B407A;}
</style>
<path class="st0" d="M437,75C388.7,26.6,324.4,0,256,0S123.3,26.6,75,75S0,187.6,0,256s26.6,132.7,75,181s112.6,75,181,75
	c46.8,0,92.6-12.8,132.5-36.9c9.4-5.7,12.5-18,6.7-27.5c-5.7-9.4-18-12.5-27.5-6.7C334.1,461.2,295.5,472,256,472
	c-112.4,0-204.9-86.2-215.1-196h127.3c9.1,40,45,70,87.8,70s78.6-30,87.8-70h127.3c-3.3,35.5-15.5,69.7-35.7,99.9
	c-6.1,9.2-3.7,21.6,5.5,27.7c9.2,6.1,21.6,3.7,27.7-5.5C497,355.7,512,306.5,512,256C512,187.6,485.4,123.3,437,75z M256,40
	c112.4,0,204.9,86.2,215.1,196H343.8c-9.1-40-45-70-87.8-70s-78.6,30-87.8,70H40.9C51.1,126.2,143.6,40,256,40z M256,306
	c-27.6,0-50-22.4-50-50s22.4-50,50-50s50,22.4,50,50S283.6,306,256,306z"/>
</svg>
