<?xml version="1.0" encoding="utf-8"?>
<!-- Generator: Adobe Illustrator 25.2.0, SVG Export Plug-In . SVG Version: 6.00 Build 0)  -->
<svg version="1.1" id="Layer_1" xmlns="http://www.w3.org/2000/svg" xmlns:xlink="http://www.w3.org/1999/xlink" x="0px" y="0px"
	 viewBox="0 0 200 200" style="enable-background:new 0 0 200 200;" xml:space="preserve">
<style type="text/css">
	.st0{fill:#EDEFF1;}
	.st1{fill:#FFFFFF;}
</style>
<circle class="st0" cx="100" cy="100" r="100"/>
<g>
	<path class="st1" d="M38.7,134.9c11.6-3,23.6-6.4,35.7-9c8-1.7,11.2,0.1,13.7,7.7c3.7,11.3,6.5,22.8,9.6,34.3
		c0.3,1.1,0.7,2.1,1.1,3.1c3.3-11.5,6.2-22.8,9.8-33.9c4-12.2,6.8-13.5,19.2-10.4c10.9,2.8,21.7,5.9,33.6,9.2
		c-3.3-3-5.9-5.2-8.3-7.6c-6.9-7.2-13.7-14.4-20.4-21.8c-4.1-4.5-4-9.4,0-14c5-5.8,10.1-11.5,15.4-17.1c3.7-3.8,7.7-7.3,11.6-10.9
		c-2.8-0.2-5.1,0.6-7.5,1.2c-9.3,2.5-18.4,5.5-27.8,7.3c-9.3,1.8-11.9,0.3-14.9-8.4c-3.4-9.8-5.8-19.9-8.6-29.8
		c-0.6-2-1.1-4-1.6-5.7c-3.9,12.6-7.5,24.9-11.5,37.1c-1.8,5.7-6,8.4-12.1,7.2c-7.3-1.5-14.7-3-21.9-4.9C48.7,67,43.7,65,38.5,63.2
		c1.7,3.2,4.2,5.3,6.5,7.6c6.3,6.4,12.9,12.7,18.6,19.6c7,8.3,6.8,10.3-0.3,18.2C55.1,117.7,46.6,126.5,38.7,134.9z"/>
	<path d="M38.7,134.9c7.9-8.5,16.4-17.2,24.6-26.3c7.1-7.9,7.3-9.9,0.3-18.2C57.8,83.5,51.3,77.3,45,70.8c-2.3-2.3-4.8-4.4-6.5-7.6
		C43.7,65,48.7,67,54,68.4c7.2,1.9,14.5,3.5,21.9,4.9c6,1.2,10.2-1.5,12.1-7.2c3.9-12.2,7.6-24.5,11.5-37.1c0.5,1.7,1.1,3.7,1.6,5.7
		c2.8,10,5.2,20.1,8.6,29.8c3.1,8.7,5.7,10.2,14.9,8.4c9.4-1.8,18.6-4.8,27.8-7.3c2.3-0.6,4.6-1.4,7.5-1.2
		c-3.9,3.6-7.9,7.1-11.6,10.9c-5.3,5.5-10.4,11.3-15.4,17.1c-4,4.6-4.1,9.5,0,14c6.7,7.4,13.6,14.6,20.4,21.8c2.4,2.5,5,4.6,8.3,7.6
		c-11.9-3.3-22.7-6.4-33.6-9.2c-12.4-3.2-15.2-1.8-19.2,10.4c-3.6,11.1-6.5,22.4-9.8,33.9c-0.3-1-0.8-2-1.1-3.1
		c-3.2-11.4-5.9-23-9.6-34.3c-2.5-7.6-5.7-9.4-13.7-7.7C62.3,128.5,50.3,132,38.7,134.9z"/>
</g>
</svg>
