<?xml version="1.0" encoding="utf-8"?>
<!-- Generator: Adobe Illustrator 25.2.0, SVG Export Plug-In . SVG Version: 6.00 Build 0)  -->
<svg version="1.1" id="Layer_1" xmlns="http://www.w3.org/2000/svg" xmlns:xlink="http://www.w3.org/1999/xlink" x="0px" y="0px"
	 viewBox="0 0 200 200" style="enable-background:new 0 0 200 200;" xml:space="preserve">
<style type="text/css">
	.st0{fill:#103352;}
	.st1{fill:#103251;}
	.st2{fill:#000001;}
</style>
<circle class="st0" cx="100" cy="100" r="100"/>
<g>
	<path class="st1" d="M76,29.5c-2.7-0.3-5.1,0.8-7.4,2c-27.4,14-41.8,36-41.7,67.1c0.1,45,41.4,79.8,85.4,71.2
		c30.4-5.9,50.5-24.3,58.2-54.4c7.3-28.8-1.4-53.5-23.4-73.2c-6.6-5.9-13.9-11.2-24.4-12.9c3.2,4.1,6,6.9,7.8,10.1
		c7.9,14,6.8,27.8-2.9,40.4c-9.2,11.9-22.1,15.4-36.3,12.5C73.4,88.7,61.4,70,64.3,52c1.4-9,6.2-15.8,12-22.3
		c0.2-0.1,0.3-0.3,0.5-0.4c-0.1-0.1-0.2-0.2-0.3-0.3C76.3,29.2,76.2,29.3,76,29.5z"/>
	<path class="st2" d="M76.3,29.7C70.5,36.2,65.7,43,64.3,52c-2.9,18,9.1,36.7,27.1,40.3c14.2,2.8,27.2-0.6,36.3-12.5
		c9.7-12.6,10.7-26.4,2.9-40.4c-1.8-3.3-4.6-6-7.8-10.1c10.5,1.7,17.8,7,24.4,12.9c22,19.8,30.7,44.4,23.4,73.2
		c-7.6,30.1-27.8,48.5-58.2,54.4c-44,8.6-85.2-26.2-85.4-71.2c-0.1-31,14.3-53.1,41.7-67.1c2.3-1.2,4.7-2.2,7.4-2L76.3,29.7z"/>
	<path class="st2" d="M76,29.5c0.1-0.2,0.3-0.3,0.4-0.5c0.1,0.1,0.2,0.2,0.3,0.3c-0.2,0.1-0.3,0.3-0.5,0.4
		C76.3,29.7,76,29.5,76,29.5z"/>
</g>
</svg>
