<?xml version="1.0" encoding="utf-8"?>
<!-- Generator: Adobe Illustrator 25.2.0, SVG Export Plug-In . SVG Version: 6.00 Build 0)  -->
<svg version="1.1" id="Layer_1" xmlns="http://www.w3.org/2000/svg" xmlns:xlink="http://www.w3.org/1999/xlink" x="0px" y="0px"
	 viewBox="0 0 200 200" style="enable-background:new 0 0 200 200;" xml:space="preserve">
<style type="text/css">
	.st0{fill:#A78B31;}
	.st1{fill:#020201;}
</style>
<circle class="st0" cx="100" cy="100" r="100"/>
<g>
	<path class="st1" d="M132.9,47.8c-7.1-2.1-13.5-4.3-20.3-5.1c-9-1-17.9-1.5-26.7,1.3c-17.1,5.6-25.4,19.2-22.3,36.9
		c3.6,20.5,16.2,33.3,36.1,41.7c-4.4-18.3-8.5-35.4-12.7-52.8c2.6-0.4,3.5,1.4,4.7,2.5c25.4,22.7,50.7,45.6,76.2,68.2
		c3.6,3.2,3.8,5.2,0.9,8.9c-13.8,17.7-32.3,23.5-53.9,21.1c-37.2-4-73.7-35.3-83.4-71.5C20.1,56.4,50.6,22.8,94.1,30
		c11.7,1.9,22.7,5.8,32.8,12.1C129,43.3,131.6,44.2,132.9,47.8z M113.7,113.6c2,13.3,3.9,14.9,15.9,14.7
		C123.9,122.9,118.8,118.3,113.7,113.6z"/>
</g>
</svg>
