<?xml version="1.0" encoding="utf-8"?>
<!-- Generator: Adobe Illustrator 25.2.0, SVG Export Plug-In . SVG Version: 6.00 Build 0)  -->
<svg version="1.1" id="Layer_1" xmlns="http://www.w3.org/2000/svg" xmlns:xlink="http://www.w3.org/1999/xlink" x="0px" y="0px"
	 viewBox="0 0 200 200" style="enable-background:new 0 0 200 200;" xml:space="preserve">
<style type="text/css">
	.st0{fill:#C8599F;}
	.st1{fill:#C6599E;}
	.st2{fill:#030103;}
</style>
<circle class="st0" cx="100" cy="100" r="100"/>
<g>
	<path class="st1" d="M153.6,49.7c1.5,5.3,3.3,10.5,4.6,15.8c5.6,23.1-0.3,37.3-20.3,49.9c-3.8,2.4-7.8,4.7-11.5,7.3
		c-10.1,6.8-17.2,15.9-19.9,28.1c-1.1,5-2.1,10.1-3.7,15c-2,6,1,5.7,5.1,4.7c17.5-4.5,33.1-12.6,45.9-25.6
		c16.7-16.9,24.1-37.1,20.1-60.9C171.5,70,164.7,58.7,153.6,49.7z M46,49.9C31.5,62.8,24.5,78.9,25.1,98.1
		c1.1,34.6,30.8,64.2,69.1,72.7c2.4,0.5,4,0.2,3.4-3c-3.4-21-10.7-39.5-31.4-49.6c-2.4-1.2-4.6-2.8-6.9-4.2
		C42.7,103.3,36.6,89,40.7,69.5C42.1,62.9,44.2,56.4,46,49.9z M141,58.2c-10,0.3-18.9,0.2-27.3-4.1c-9.3-4.8-9.1-15.3-14.9-25.2
		c-2.9,25.6-18.7,31.3-40.2,29.4c28,14.2,37.8,38.5,41.3,67.4C103.4,96.8,113.4,72.4,141,58.2z"/>
	<path class="st2" d="M153.6,49.7c11.1,9,17.9,20.3,20.3,34.2c4,23.8-3.3,44-20.1,60.9c-12.8,13-28.4,21-45.9,25.6
		c-4.1,1.1-7.1,1.3-5.1-4.7c1.6-4.9,2.6-10,3.7-15c2.7-12.2,9.7-21.2,19.9-28.1c3.8-2.5,7.7-4.9,11.5-7.3
		c20-12.5,25.9-26.7,20.3-49.9C156.9,60.2,155.1,55,153.6,49.7z"/>
	<path class="st2" d="M46,49.9c-1.8,6.5-3.9,13-5.3,19.6c-4.1,19.6,2,33.9,18.7,44.5c2.3,1.4,4.5,3,6.9,4.2
		c20.7,10.1,28,28.6,31.4,49.6c0.5,3.3-1,3.6-3.4,3c-38.3-8.5-68-38.1-69.1-72.7C24.5,78.9,31.5,62.8,46,49.9z"/>
	<path class="st2" d="M141,58.2c-27.7,14.1-37.6,38.5-41.1,67.5c-3.5-28.8-13.3-53.1-41.3-67.4c21.5,1.9,37.3-3.8,40.2-29.4
		c5.8,9.8,5.7,20.4,14.9,25.2C122.2,58.5,131.1,58.5,141,58.2z"/>
</g>
</svg>
