<?xml version="1.0" encoding="utf-8"?>
<!-- Generator: Adobe Illustrator 25.2.0, SVG Export Plug-In . SVG Version: 6.00 Build 0)  -->
<svg version="1.1" id="Layer_1" xmlns="http://www.w3.org/2000/svg" xmlns:xlink="http://www.w3.org/1999/xlink" x="0px" y="0px"
	 viewBox="0 0 200 200" style="enable-background:new 0 0 200 200;" xml:space="preserve">
<style type="text/css">
	.st0{fill:#AA3524;}
	.st1{fill:#A83626;}
	.st2{fill:#040101;}
</style>
<circle class="st0" cx="100" cy="100" r="100"/>
<g>
	<path class="st1" d="M163.7,124.7C163.7,124.7,163.7,124.7,163.7,124.7c-0.1-2.6-0.1-5.2-0.1-7.7c0-2.6,0.2-5.2,0.2-7.7
		c-0.2-7.6-4.8-12.3-12.3-12.5c-9.6-0.2-19.2-0.3-28.9,0c-8.5,0.2-12.7,4.8-12.8,13.3c0,3.1,0.1,6.1-0.1,9.2
		c-0.5,6.9-5.1,11.1-11.9,11.2c-11.9,0.2-15,2.9-15.2,15c-0.1,6.4-2.6,10.6-8.8,11.6c-6.7,1.1-3.6,6-4.1,9.3
		c-0.5,3.7,1.8,4.8,5.2,4.8c16.7-0.1,33.4-0.1,50,0c3.9,0,5.3-1.4,5.4-5.3c0.5-12.1,3.3-14.6,15.5-14.5c1.9,0,3.8,0.2,5.6,0.1
		c7.5-0.2,12.1-4.8,12.2-12.5C163.8,134.1,163.7,129.4,163.7,124.7z M70.2,96.7c0,0.1,0,0.1,0,0.2c-3.5,0-7,0-10.6,0
		c-3.5,0-7-0.3-10.6-0.2c-7.2,0.2-12.4,4.2-12.7,10.6c-0.4,11-0.4,22.1,0,33.1c0.3,6.8,4.6,10.3,11.7,10.5c5.6,0.1,11.3,0.1,16.9,0
		c6.6-0.2,11.3-5,11.6-11.6c0.5-12.3,2.9-14.8,14.9-15.2c7.8-0.3,11.9-4.5,12.1-12.4c0.2-9-4.4-14.6-12.3-14.9
		C84.3,96.6,77.3,96.7,70.2,96.7z M97.3,61.3c0-4.2,0-8.5,0-12.7c0-18.6-0.8-19.3-19.6-18.3c-6.1,0.3-8.9,2.9-8.7,9.2
		c0.2,10.8,0,21.6-0.1,32.4c-0.2,20,0.1,20.1,19.8,19.2c5.9-0.2,8.6-2.9,8.6-8.7C97.3,75.4,97.3,68.3,97.3,61.3z M103,60.8
		c0,4.2,0,8.5,0,12.7c0,18,0,18,18.4,17.5c7.8-0.2,9.5-1.8,9.6-9.6c0.1-10.8,0-21.6,0.1-32.4c0.1-19.1,1.4-19.1-20.4-18.7
		c-5.1,0.1-7.7,2.6-7.7,7.9C103.1,45.8,103,53.3,103,60.8z M162.9,65.1c0-6.1-0.1-12.2,0-18.3c0.1-5.1-2.5-8.6-7.5-8.1
		c-6.9,0.7-15.4-4.3-20.1,4.9c-0.3,0.6-0.4,1.4-0.5,2c0,12.9-0.1,25.8,0.1,38.6c0.1,4,2.6,7,6.8,6.4c7-0.9,15.2,3.9,20.7-4.1
		c0.7-1,0.5-2.7,0.5-4.1C163,76.8,163,71,162.9,65.1z M64.6,64.9C64.6,64.9,64.6,64.9,64.6,64.9c0-2.6,0-5.2,0-7.7
		c0-19-1-19.8-19.8-18.6c-5.8,0.4-8.5,3-8.4,8.8c0.1,8.4,0,16.9,0,25.3c0,19.4,0,19.3,19.6,18.5c5.9-0.2,8.6-3,8.6-8.6
		C64.6,76.6,64.6,70.8,64.6,64.9z"/>
	<path class="st2" d="M163.7,124.7c0,4.7,0.1,9.4,0,14.1c-0.1,7.6-4.6,12.2-12.2,12.5c-1.9,0.1-3.8-0.1-5.6-0.1
		c-12.1-0.1-15,2.4-15.5,14.5c-0.2,4-1.6,5.4-5.4,5.3c-16.7-0.1-33.3-0.1-50,0c-3.4,0-5.7-1-5.2-4.8c0.5-3.4-2.6-8.3,4.1-9.3
		c6.2-1,8.7-5.2,8.8-11.6c0.2-12,3.2-14.8,15.2-15c6.8-0.1,11.4-4.3,11.9-11.2c0.2-3,0.1-6.1,0.1-9.2c0.1-8.5,4.2-13.1,12.8-13.3
		c9.6-0.2,19.2-0.1,28.9,0c7.5,0.1,12.1,4.9,12.3,12.5c0.1,2.6-0.1,5.2-0.2,7.7C163.6,119.6,163.6,122.1,163.7,124.7
		C163.7,124.7,163.7,124.7,163.7,124.7z"/>
	<path class="st2" d="M70.2,96.7c7,0,14.1-0.2,21.1,0c7.9,0.2,12.4,5.9,12.3,14.9c-0.1,7.9-4.3,12.1-12.1,12.4
		c-11.9,0.4-14.4,3-14.9,15.2c-0.3,6.5-5,11.4-11.6,11.6c-5.6,0.1-11.3,0.2-16.9,0c-7-0.2-11.4-3.7-11.7-10.5
		c-0.4-11-0.4-22.1,0-33.1c0.2-6.4,5.5-10.4,12.7-10.6c3.5-0.1,7,0.2,10.6,0.2c3.5,0,7,0,10.6,0C70.2,96.8,70.2,96.8,70.2,96.7z"/>
	<path class="st2" d="M97.3,61.3c0,7,0,14.1,0,21.1c0,5.7-2.7,8.4-8.6,8.7C69,91.9,68.8,91.8,69,71.9c0.1-10.8,0.3-21.6,0.1-32.4
		c-0.1-6.3,2.6-8.9,8.7-9.2c18.7-1,19.6-0.3,19.6,18.3C97.3,52.8,97.3,57.1,97.3,61.3z"/>
	<path class="st2" d="M103,60.8c0-7.5,0.1-15,0-22.5c-0.1-5.3,2.5-7.8,7.7-7.9c21.9-0.5,20.5-0.4,20.4,18.7
		c-0.1,10.8,0.1,21.6-0.1,32.4c-0.1,7.8-1.8,9.4-9.6,9.6C103,91.5,103,91.5,103,73.5C103,69.3,103,65,103,60.8z"/>
	<path class="st2" d="M162.9,65.1c0,5.9,0,11.7,0,17.6c0,1.4,0.2,3.1-0.5,4.1c-5.5,8-13.7,3.1-20.7,4.1c-4.2,0.5-6.7-2.4-6.8-6.4
		c-0.2-12.9-0.1-25.8-0.1-38.6c0-0.7,0.1-1.4,0.5-2c4.8-9.2,13.3-4.2,20.1-4.9c5-0.5,7.5,2.9,7.5,8.1C162.9,53,162.9,59,162.9,65.1z
		"/>
	<path class="st2" d="M64.6,64.9c0,5.9,0,11.7,0,17.6c0,5.7-2.6,8.4-8.6,8.6C36.4,91.9,36.4,92,36.4,72.6c0-8.4,0.1-16.9,0-25.3
		c-0.1-5.9,2.6-8.4,8.4-8.8c18.8-1.2,19.8-0.3,19.8,18.6C64.6,59.8,64.6,62.3,64.6,64.9C64.6,64.9,64.6,64.9,64.6,64.9z"/>
</g>
</svg>
