<?xml version="1.0" encoding="utf-8"?>
<!-- Generator: Adobe Illustrator 25.2.0, SVG Export Plug-In . SVG Version: 6.00 Build 0)  -->
<svg version="1.1" id="Layer_1" xmlns="http://www.w3.org/2000/svg" xmlns:xlink="http://www.w3.org/1999/xlink" x="0px" y="0px"
	 viewBox="0 0 200 200" style="enable-background:new 0 0 200 200;" xml:space="preserve">
<style type="text/css">
	.st0{fill:#D92129;}
</style>
<circle class="st0" cx="100" cy="100" r="100"/>
<path d="M135.3,125.2c21.4-13.4,31.3-31.8,18.9-46.8c-4.7,11.3-14,16.2-25.2,18.4c-7.1,1.4-7.5,1-7.1-6.1
	c0.9-13.9-0.1-27.5-6.5-40.2C110.5,40.6,103,33.5,91,29c1.3,2.8,2.1,4.3,2.8,5.7c5.4,10.7,4.5,15.1-5,22.5
	c-5.1,4-10.1,8.1-14.7,12.7c-9.7,9.5-13.2,20.3-7.4,33.2c0.1,0.2-0.3,0.5-0.7,1c-12.4-9.4-16.1-20.9-9-35.6
	c-10.6,8.4-17.5,18-17.6,31.6c0,13,6.4,23.3,14.3,34.2c-9.1-2.2-15.2-7.1-21.6-12c4.3,31.2,36.5,51.6,75.4,48.3
	c28.2-2.4,61-33.8,60.3-57.7C148.9,125,142.4,127.5,135.3,125.2z M121.3,148.6c4.7,8.7,3,14-6.1,17.5c-11.5,4.4-23.1,4.5-34.6-0.1
	c-3.6-1.5-6.6-3.8-8.7-7.1c-2.2-3.4-2.3-6.5,0.5-9.9c5.4-6.5,4.9-9.7-2.2-15.9c6.5-0.8,10.3,1.9,13,6.5c1.8,3.1,3.1,2.1,4.3-0.1
	c2.1-3.7,1.8-7.2-0.9-10.6c-7.2-9-6.4-13,3.5-19.2c3.7-2.3,6.3-3.2,11.1-3.6c0.6,1.1-0.2,1.8-0.7,2.5c-5.1,7.8-5.2,7.9,1.6,14
	c3.8,3.5,4.4,8.2,5.4,13.5c4.7-5.5,9.6-9,16.4-9c0.5,1.3-0.4,1.9-0.9,2.6C117.5,136.5,117.1,140.9,121.3,148.6z"/>
</svg>
