<?xml version="1.0" encoding="utf-8"?>
<!-- Generator: Adobe Illustrator 25.2.0, SVG Export Plug-In . SVG Version: 6.00 Build 0)  -->
<svg version="1.1" id="Layer_1" xmlns="http://www.w3.org/2000/svg" xmlns:xlink="http://www.w3.org/1999/xlink" x="0px" y="0px"
	 viewBox="0 0 200 200" style="enable-background:new 0 0 200 200;" xml:space="preserve">
<style type="text/css">
	.st0{fill:#238842;}
</style>
<circle class="st0" cx="100" cy="100" r="100"/>
<path d="M161.7,98.6c-6.3-25.3-20-46.8-35.3-67.5c-1.6-2.2-3.4-2.5-6.1-1.5C98.5,37.9,77.6,48,60.1,63.9c-13.2,12-23.2,25.9-23.6,43
	c0.1,4.8,0.2,7.9,1,11c3.7,13.1,12.7,22,24.9,26.2c10.1,3.5,14.9,9,15.4,19.3c0.1,2.8,1.3,5.3,4.7,5.8c3.7,0.5,7.3,1.2,11,1.8
	c3,0.5,4.5-0.7,4.1-3.8c-0.4-2.9-0.6-5.8-1.1-8.7c-0.6-4.1,0.1-6.1,5.2-6.6c13.2-1.4,26.4-3.1,38.5-9c10.9-5.3,20.2-12,22.6-25
	C164.1,111.2,163.3,104.8,161.7,98.6z M111.9,95.7c-1.5,0.4-3,0.8-4.5,1.3c-10.7,3.7-19.3,9-16.7,23.2c14.4-4.7,29.4-8.6,44.8-1.3
	c-1.4,0.1-2.7,0.2-4.1,0.2c-1.4,0-2.7,0-4.1-0.1c-12.4-0.6-23.5,3.1-33.7,9.9c-4.3,2.9-7.1,6.3-6.7,12c0.3,3.6-0.6,7.4-1.1,12.2
	c-4-5.6-5.5-11.3-5.3-16.7c0.4-10.6-6.1-15.6-14-19.5c-4.6-2.3-9.8-3.4-15.6-5.3c11.6-4.4,20.8,0,29.8,5
	c6.9-16.1,3.3-20.9-21.7-29.4c6.6-3.2,14.4-2.5,22.5,1.7c2,1,3.6,4.5,6.4,2.3c2.9-2.3,3.6-9.5,1.4-12.4c-4-5.3-9.1-9.5-16.5-12
	C79.2,64,83.6,66.8,88,69c8,4,7.9,4,12.6-3.7c3.4-5.4,6.9-10.8,11.3-15.7c-3.1,7.6-6.1,15.3-9.5,23.9c10.7-3.8,20.5-6.2,30.6-1.7
	c-11,0.1-21.2,2.9-30.3,9.2c-2.8,2-5,4.4-5.8,7.8c-0.3,1.3-1.1,2.8,0,3.9c1.2,1.2,2.6-0.1,3.7-0.6c13.6-5.4,26.7-4.4,39.5,2.5
	c0.5,0.3,1,0.6,1.5,0.9c0.3,0.2,0.5,0.5,1.2,1.4C132.3,93.6,122.1,93.2,111.9,95.7z"/>
</svg>
