<?xml version="1.0" encoding="utf-8"?>
<!-- Generator: Adobe Illustrator 25.2.0, SVG Export Plug-In . SVG Version: 6.00 Build 0)  -->
<svg version="1.1" id="Layer_1" xmlns="http://www.w3.org/2000/svg" xmlns:xlink="http://www.w3.org/1999/xlink" x="0px" y="0px"
	 viewBox="0 0 200 200" style="enable-background:new 0 0 200 200;" xml:space="preserve">
<style type="text/css">
	.st0{fill:#FBCD2F;}
	.st1{fill:#FFFFFF;}
</style>
<circle class="st0" cx="100" cy="100" r="100"/>
<g>
	<path class="st1" d="M102.1,170.7c0.4,0.2,0.8,0.4,1.3,0.6c14.7-31.2,29.4-62.5,44.7-95c-20.2,6.1-38.7,11.7-58.1,17.5
		c3.5-22,6.9-43.2,10.3-64.3c-0.4-0.1-0.8-0.3-1.3-0.4c-15.5,31.3-31,62.6-47.2,95.2c21.5-6.3,41.5-12.1,62.4-18.2
		C110,128.2,106,149.4,102.1,170.7z"/>
	<path d="M102.1,170.7c4-21.3,7.9-42.5,12.1-64.6c-20.8,6.1-40.9,11.9-62.4,18.2c16.2-32.6,31.7-63.9,47.2-95.2
		c0.4,0.1,0.8,0.3,1.3,0.4c-3.4,21.1-6.8,42.2-10.3,64.3c19.3-5.8,37.9-11.4,58.1-17.5c-15.3,32.5-30,63.7-44.7,95
		C102.9,171.1,102.5,170.9,102.1,170.7z"/>
</g>
</svg>
