<?xml version="1.0" encoding="utf-8"?>
<!-- Generator: Adobe Illustrator 25.2.0, SVG Export Plug-In . SVG Version: 6.00 Build 0)  -->
<svg version="1.1" id="Layer_1" xmlns="http://www.w3.org/2000/svg" xmlns:xlink="http://www.w3.org/1999/xlink" x="0px" y="0px"
	 viewBox="0 0 200 200" style="enable-background:new 0 0 200 200;" xml:space="preserve">
<style type="text/css">
	.st0{fill:#8B929A;}
	.st1{fill:#8B9299;}
	.st2{fill:#040404;}
</style>
<circle class="st0" cx="100" cy="100" r="100"/>
<g>
	<path class="st1" d="M100,133.8c12.8-22.3,24.8-43.3,36.9-64.2c3-5.2-0.2-4.7-3.6-4.7c-22.1,0-44.2,0-66.3,0
		c-1.8,0-3.8-0.6-5.8,1.3C73.9,88.2,86.6,110.4,100,133.8z M142.1,29.7c-16.1-0.5-15.9-0.5-21.5,12.7c-1.5,3.5-1,4.7,2.8,4.7
		c5.7,0.1,11.4,0.8,17.1,0.9c3.7,0.1,6.3,1.1,8,4.6c2.6,5.1,5.5,10,8.5,14.9c1.7,2.7,1.8,5.1,0.2,8c-2.9,5.2-5.3,10.6-8.2,15.9
		c-2,3.7-1,4.8,3,5.3c14.2,1.8,14.1,2,20.8-10.8c1.5-3,2.9-6,4.6-8.9c1.8-3,1.6-5.6-0.2-8.6c-5-8.4-10.3-16.6-14.5-25.4
		C158.2,33,152,26.9,142.1,29.7z M99.1,170.3c25.6,0,25.6,0,37-19.1c0.5-0.8,1-1.6,1.5-2.4c0.8-1.3,0.8-2.7-0.1-4
		c-3.1-4.5-4.9-11.5-9.6-12.7c-3.6-0.9-5.3,6.7-8.3,10.2c-0.3,0.4-0.6,0.8-0.8,1.2c-3.2,7.9-9.1,9.2-17.3,10
		c-12.9,1.3-19.4-4.3-25-14.6c-5-9.3-5.4-8.8-11.6-0.2c-3.7,5.1-4.1,8.8-1.1,15.1c6.7,14.3,16.9,19.1,31.7,16.5
		C96.7,170.1,97.9,170.3,99.1,170.3z M79.1,46.9c-5-17.2-5.8-17.8-22.2-17.2c-2.6,0.1-5.2,0.4-7.8,0.3c-4.1-0.2-6.5,1.7-8.4,5.2
		c-4.6,8.3-8.8,17-14.4,24.6c-6.7,9.1-6.4,16.9-0.6,26.3c7.1,11.4,6.4,11.6,19.7,10.7c5.7-0.4,6.8-2.3,3.4-6.6
		c-10-12.6-9.2-24.5,0.8-36.8c2.6-3.3,4.9-5.3,9.1-5.4C65.3,47.8,72.2,47.3,79.1,46.9z"/>
	<path class="st2" d="M100,133.8c-13.4-23.4-26.1-45.5-38.7-67.6c2-2,4-1.3,5.8-1.3c22.1,0,44.2,0,66.3,0c3.3,0,6.6-0.4,3.6,4.7
		C124.7,90.5,112.7,111.5,100,133.8z"/>
	<path class="st2" d="M142.1,29.7c9.9-2.8,16,3.3,20.7,13.3c4.2,8.8,9.5,17.1,14.5,25.4c1.8,3,2,5.6,0.2,8.6
		c-1.7,2.8-3.1,5.9-4.6,8.9c-6.7,12.8-6.7,12.6-20.8,10.8c-3.9-0.5-5-1.6-3-5.3c2.9-5.2,5.3-10.7,8.2-15.9c1.6-2.9,1.5-5.2-0.2-8
		c-3-4.9-5.9-9.8-8.5-14.9c-1.8-3.5-4.4-4.5-8-4.6c-5.7-0.1-11.4-0.7-17.1-0.9c-3.8-0.1-4.3-1.3-2.8-4.7
		C126.2,29.2,126.1,29.2,142.1,29.7z"/>
	<path class="st2" d="M99.1,170.3c-1.2,0-2.4-0.2-3.6,0c-14.8,2.6-25-2.2-31.7-16.5c-3-6.4-2.6-10,1.1-15.1
		c6.2-8.6,6.6-9.1,11.6,0.2c5.5,10.4,12.1,15.9,25,14.6c8.2-0.8,14.1-2.1,17.3-10c0.2-0.4,0.5-0.8,0.8-1.2
		c2.9-3.5,4.7-11.1,8.3-10.2c4.7,1.1,6.5,8.2,9.6,12.7c0.9,1.3,0.9,2.7,0.1,4c-0.5,0.8-1,1.6-1.5,2.4
		C124.8,170.3,124.8,170.3,99.1,170.3z"/>
	<path class="st2" d="M79.1,46.9c-6.9,0.4-13.8,0.9-20.6,1.1c-4.3,0.1-6.5,2.1-9.1,5.4c-9.9,12.3-10.8,24.3-0.8,36.8
		c3.4,4.3,2.3,6.2-3.4,6.6C32,97.6,32.6,97.5,25.6,86.1c-5.8-9.4-6.1-17.2,0.6-26.3c5.6-7.6,9.8-16.2,14.4-24.6
		c1.9-3.5,4.4-5.4,8.4-5.2c2.6,0.1,5.2-0.2,7.8-0.3C73.3,29.1,74.1,29.7,79.1,46.9z"/>
</g>
</svg>
