<?xml version="1.0" encoding="utf-8"?>
<!-- Generator: Adobe Illustrator 25.2.0, SVG Export Plug-In . SVG Version: 6.00 Build 0)  -->
<svg version="1.1" id="Layer_1" xmlns="http://www.w3.org/2000/svg" xmlns:xlink="http://www.w3.org/1999/xlink" x="0px" y="0px"
	 viewBox="0 0 200 200" style="enable-background:new 0 0 200 200;" xml:space="preserve">
<style type="text/css">
	.st0{fill:#99469A;}
	.st1{fill:#030103;}
	.st2{fill:#99489A;}
</style>
<circle class="st0" cx="100" cy="100" r="100"/>
<g>
	<path class="st1" d="M100.6,160c-34.1-0.5-57.4-17.8-76.4-43.5c-6.8-9.2-7.3-16.6-1.1-26.3c12.9-20.5,28.1-38.4,51.9-46
		c30.4-9.8,57-1.8,79.8,20c10.6,10.1,18.7,22,25,35.2c1.2,2.4,1.9,4.6,0.4,7.2c-16.3,27.9-38.1,48.4-71.6,53
		C105.7,159.9,102.7,159.9,100.6,160z M122.5,61.7c19.8,22,22,44.4,5.8,62.7c-13.6,15.4-37.1,17.5-53.8,4.9
		c-8.7-6.6-13.8-15.6-15.5-26.3C56.5,87,62.7,74,74,63.4c-1.1-1.4-2-0.9-2.7-0.6c-16.5,8.2-28,21.2-36.6,37.1
		c-1,1.9-0.8,3.6,0.4,5.4c14.7,21.9,33.8,37.1,61,39.4c31.9,2.7,55.5-20.2,67.4-39.7c1.6-2.5,0.5-4.4-0.7-6.5
		c-5.1-8.7-11-16.7-18.5-23.5C138,69.1,131,64.2,122.5,61.7z M80.5,101.3c3.3,9.9,11.7,15.1,20.7,13.3c9.9-2,16.7-10.9,15.8-20.9
		c-0.8-9.3-9.1-17.4-18.1-17.6c-1.2,0-2.9,0-3.6,0.7c-1.6,1.6,0.6,2.5,1.3,3.6c3.8,6.9,2.7,13.9-2.8,18.4
		C90,102,85.5,101.5,80.5,101.3z M120.8,60.9c-0.1-0.1-0.2-0.3-0.4-0.3c-0.1,0-0.3,0.2-0.4,0.3c0.2,0.1,0.4,0.3,0.5,0.4
		C120.7,61.1,120.8,61,120.8,60.9z"/>
	<path class="st2" d="M120.8,60.9c-0.1,0.1-0.1,0.2-0.2,0.4c-0.2-0.1-0.4-0.3-0.5-0.4c0.1-0.1,0.3-0.3,0.4-0.3
		C120.6,60.5,120.7,60.7,120.8,60.9z"/>
</g>
</svg>
