<?xml version="1.0" encoding="utf-8"?>
<!-- Generator: Adobe Illustrator 25.2.0, SVG Export Plug-In . SVG Version: 6.00 Build 0)  -->
<svg version="1.1" id="Layer_1" xmlns="http://www.w3.org/2000/svg" xmlns:xlink="http://www.w3.org/1999/xlink" x="0px" y="0px"
	 viewBox="0 0 200 200" style="enable-background:new 0 0 200 200;" xml:space="preserve">
<style type="text/css">
	.st0{fill:#19AFE4;}
</style>
<circle class="st0" cx="100" cy="100" r="100"/>
<g>
	<path d="M168.5,30.9c-6.2,2.2-12.7,3.7-18.4,6.7c-7,3.6-14.1,7.7-19.7,13c-8.9,8.5-10.3,19.3-4.1,30c4.2,7.2,10.1,13.5,14.8,20.4
		c5,7.3,10.8,14.4,13.9,22.5c7.2,18.4,0,34.1-18.1,41.9c-18,7.7-36.7,6.8-54.9,1.3c-9.8-3-19.6-7.7-28-13.7
		c-23-16.1-29-47.6-14.7-71.9c7.6-13,18.8-22.2,31.9-29c22.7-11.8,47.2-17.9,72.5-20.7c8.2-0.9,16.5-1.6,24.7-2.4
		C168.4,29.6,168.5,30.3,168.5,30.9z M73.1,137.3c-2.8,1.4-5.6,2.9-8.4,4.3c1.6,2.7,2.7,6.1,5,8.1c7.6,6.7,16.9,9.6,26.9,9.7
		c2.6,0,5.2-1.8,7.8-2.8c-1.2-2.5-1.7-5.7-3.6-7.4C93.3,142.3,84.1,138.6,73.1,137.3z"/>
</g>
</svg>
